<?xml version="1.0" encoding="utf-8"?>
<!-- Generator: Adobe Illustrator 19.0.0, SVG Export Plug-In . SVG Version: 6.00 Build 0)  -->
<svg version="1.1" id="图层_1" xmlns="http://www.w3.org/2000/svg" xmlns:xlink="http://www.w3.org/1999/xlink" x="0px" y="0px"
	 viewBox="0 0 48 48" style="enable-background:new 0 0 48 48;" xml:space="preserve">
<style type="text/css">
	.st0{fill-rule:evenodd;clip-rule:evenodd;fill:#FFFFFF;}
</style>
<g id="XMLID_2_">
	<g id="XMLID_37_">
		<path id="XMLID_38_" class="st0" d="M24,0C10.7,0,0,10.7,0,24c0,13.3,10.7,24,24,24s24-10.7,24-24C48,10.7,37.3,0,24,0z
			 M37.4,19.4L21.5,35.3c0,0,0,0.1-0.1,0.1C21,35.8,20.5,36,20,36c-0.5,0-1-0.2-1.4-0.6c0,0,0-0.1-0.1-0.1l-8.9-8.9
			c-0.8-0.8-0.8-2,0-2.8c0.8-0.8,2-0.8,2.8,0l7.6,7.6l14.6-14.6c0.8-0.8,2-0.8,2.8,0C38.2,17.3,38.2,18.6,37.4,19.4z"/>
	</g>
</g>
</svg>
