<?xml version="1.0" encoding="utf-8"?>
<!-- Generator: Adobe Illustrator 19.0.0, SVG Export Plug-In . SVG Version: 6.00 Build 0)  -->
<svg version="1.1" id="图层_1" xmlns="http://www.w3.org/2000/svg" xmlns:xlink="http://www.w3.org/1999/xlink" x="0px" y="0px"
	 viewBox="0 0 100 95.5" style="enable-background:new 0 0 100 95.5;" xml:space="preserve">
<style type="text/css">
	.st0{fill-rule:evenodd;clip-rule:evenodd;fill:#040000;}
</style>
<g id="XMLID_1_">
	<g id="XMLID_4_">
		<g id="XMLID_58_">
			<path id="XMLID_59_" class="st0" d="M90.9,9.1l-4.5,0v9.1c2.5,0,4.5,2,4.5,4.5v59.1c0,2.5-2,4.5-4.5,4.5H13.6
				c-2.5,0-4.5-2-4.5-4.5V22.7c0-2.5,2-4.5,4.5-4.5V9.1l-4.5,0c-5,0-9.1,4.1-9.1,9.1v68.2c0,5,4.1,9.1,9.1,9.1h81.8
				c5,0,9.1-4.1,9.1-9.1V18.2C100,13.2,95.9,9.1,90.9,9.1z M59.1,9.1H40.9v9.1h18.2V9.1z M72.7,27.3c2.5,0,4.5-2,4.5-4.5V4.5
				c0-2.5-2-4.5-4.5-4.5c-2.5,0-4.5,2-4.5,4.5v18.2C68.2,25.2,70.2,27.3,72.7,27.3z M27.3,27.3c2.5,0,4.5-2,4.5-4.5V4.5
				c0-2.5-2-4.5-4.5-4.5c-2.5,0-4.5,2-4.5,4.5v18.2C22.7,25.2,24.8,27.3,27.3,27.3z M22.7,50h54.5c2.5,0,4.5-2,4.5-4.5
				c0-2.5-2-4.5-4.5-4.5H22.7c-2.5,0-4.5,2-4.5,4.5C18.2,48,20.2,50,22.7,50z"/>
		</g>
	</g>
</g>
</svg>
