<?xml version="1.0" encoding="utf-8"?>
<!-- Generator: Adobe Illustrator 19.0.0, SVG Export Plug-In . SVG Version: 6.00 Build 0)  -->
<svg version="1.1" id="图层_1" xmlns="http://www.w3.org/2000/svg" xmlns:xlink="http://www.w3.org/1999/xlink" x="0px" y="0px"
	 viewBox="0 0 36 36" style="enable-background:new 0 0 36 36;" xml:space="preserve">
<style type="text/css">
	.st0{fill-rule:evenodd;clip-rule:evenodd;fill:#040000;}
</style>
<g id="XMLID_2_">
	<g id="XMLID_22_">
		<path id="XMLID_23_" class="st0" d="M20.1,18L35.6,2.5c0.6-0.6,0.6-1.5,0-2.1c-0.6-0.6-1.5-0.6-2.1,0L18,15.9L2.5,0.4
			C1.9-0.1,1-0.1,0.4,0.4c-0.6,0.6-0.6,1.5,0,2.1L15.9,18L0.4,33.5c-0.6,0.6-0.6,1.5,0,2.1s1.5,0.6,2.1,0L18,20.1l15.5,15.5
			c0.6,0.6,1.5,0.6,2.1,0s0.6-1.5,0-2.1L20.1,18z"/>
	</g>
</g>
</svg>
