<?xml version="1.0" encoding="utf-8"?>
<!-- Generator: Adobe Illustrator 21.0.0, SVG Export Plug-In . SVG Version: 6.00 Build 0)  -->
<svg version="1.1" id="图层_3" xmlns="http://www.w3.org/2000/svg" xmlns:xlink="http://www.w3.org/1999/xlink" x="0px" y="0px"
	 viewBox="0 0 91.8 100" style="enable-background:new 0 0 91.8 100;" xml:space="preserve">
<path d="M89.3,53c1-1.4,1.7-3.2,1.7-5.1c0-4.7-3.8-8.6-8.6-8.6h-8.6c-2.4,0-4.3-1.9-4.3-4.3V9.3c0-4.7-3.8-8.6-8.6-8.6H31
	c-4.7,0-8.6,3.8-8.6,8.6V35c0,2.4-1.9,4.3-4.3,4.3H9.5c-4.7,0-8.6,3.8-8.6,8.6c0,1.9,0.6,3.7,1.7,5.1l35.7,43.1
	c4.2,4.2,11,4.2,15.2,0L89.3,53z"/>
</svg>
