<?xml version="1.0" encoding="utf-8"?>
<!-- Generator: Adobe Illustrator 19.0.0, SVG Export Plug-In . SVG Version: 6.00 Build 0)  -->
<svg version="1.1" id="图层_1" xmlns="http://www.w3.org/2000/svg" xmlns:xlink="http://www.w3.org/1999/xlink" x="0px" y="0px"
	 viewBox="0 0 48 48" style="enable-background:new 0 0 48 48;" xml:space="preserve">
<style type="text/css">
	.st0{fill-rule:evenodd;clip-rule:evenodd;fill:#FFFFFF;}
</style>
<g id="XMLID_2_">
	<g id="XMLID_37_">
		<path id="XMLID_38_" class="st0" d="M24,0C10.7,0,0,10.7,0,24c0,13.3,10.7,24,24,24s24-10.7,24-24C48,10.7,37.3,0,24,0z
			 M35.4,32.6c0.8,0.8,0.8,2,0,2.8c-0.8,0.8-2,0.8-2.8,0L24,26.8l-8.6,8.6c-0.8,0.8-2,0.8-2.8,0c-0.8-0.8-0.8-2,0-2.8l8.6-8.6
			l-8.6-8.6c-0.8-0.8-0.8-2,0-2.8c0.8-0.8,2-0.8,2.8,0l8.6,8.6l8.6-8.6c0.8-0.8,2-0.8,2.8,0c0.8,0.8,0.8,2,0,2.8L26.8,24L35.4,32.6z
			"/>
	</g>
</g>
</svg>
