<svg id="图层_1" data-name="图层 1" xmlns="http://www.w3.org/2000/svg" viewBox="0 0 20 18.73"><defs><style>.cls-1{fill:#231f20;}</style></defs><title>首页</title><path class="cls-1" d="M21.85,13.15l-9.8-9.73a.56.56,0,0,0-.36-.15.5.5,0,0,0-.36.16l-9.2,9.73a.5.5,0,0,0,.73.69L4.7,11.91V21.5a.5.5,0,0,0,.5.5H18.5a.5.5,0,0,0,.5-.5V11.72l2.15,2.13a.5.5,0,1,0,.71-.71ZM10.32,21V15.5H13.5V21ZM18,10.85V21H14.5V15a.5.5,0,0,0-.5-.5H9.82a.5.5,0,0,0-.5.5v6H5.7V10.85h0l6-6.36L18,10.75A.48.48,0,0,0,18,10.85Z" transform="translate(-2 -3.27)"/></svg>