<?xml version="1.0" encoding="utf-8"?>
<!-- Generator: Adobe Illustrator 19.0.0, SVG Export Plug-In . SVG Version: 6.00 Build 0)  -->
<svg version="1.1" id="图层_1" xmlns="http://www.w3.org/2000/svg" xmlns:xlink="http://www.w3.org/1999/xlink" x="0px" y="0px"
	 viewBox="0 0 34 30" style="enable-background:new 0 0 34 30;" xml:space="preserve">
<style type="text/css">
	.st0{fill-rule:evenodd;clip-rule:evenodd;fill:#040000;}
</style>
<g id="XMLID_2_">
	<g id="XMLID_42_">
		<path id="XMLID_44_" class="st0" d="M1.5,3h31C33.3,3,34,2.3,34,1.5C34,0.7,33.3,0,32.5,0h-31C0.7,0,0,0.7,0,1.5
			C0,2.3,0.7,3,1.5,3z M32.5,13.5h-31C0.7,13.5,0,14.2,0,15c0,0.8,0.7,1.5,1.5,1.5h31c0.8,0,1.5-0.7,1.5-1.5
			C34,14.2,33.3,13.5,32.5,13.5z M32.5,27h-31C0.7,27,0,27.7,0,28.5C0,29.3,0.7,30,1.5,30h31c0.8,0,1.5-0.7,1.5-1.5
			C34,27.7,33.3,27,32.5,27z"/>
	</g>
</g>
</svg>
