<?xml version="1.0" encoding="utf-8"?>
<!-- Generator: Adobe Illustrator 21.0.0, SVG Export Plug-In . SVG Version: 6.00 Build 0)  -->
<svg version="1.1" id="图层_1" xmlns="http://www.w3.org/2000/svg" xmlns:xlink="http://www.w3.org/1999/xlink" x="0px" y="0px"
	 viewBox="0 0 100 23" style="enable-background:new 0 0 100 23;" xml:space="preserve">
<style type="text/css">
	.st0{fill-rule:evenodd;clip-rule:evenodd;}
</style>
<g>
	<path class="st0" d="M88.8,0.4c-6.1,0-11.1,5-11.1,11.1c0,6.1,5,11.1,11.1,11.1c6.1,0,11.1-5,11.1-11.1C99.8,5.4,94.9,0.4,88.8,0.4
		z M50,0.4c-6.1,0-11.1,5-11.1,11.1c0,6.1,5,11.1,11.1,11.1c6.1,0,11.1-5,11.1-11.1C61.1,5.4,56.1,0.4,50,0.4z M11.2,0.4
		c-6.1,0-11.1,5-11.1,11.1c0,6.1,5,11.1,11.1,11.1s11.1-5,11.1-11.1C22.3,5.4,17.4,0.4,11.2,0.4z"/>
</g>
</svg>
