<?xml version="1.0" encoding="utf-8"?>
<!-- Generator: Adobe Illustrator 21.0.0, SVG Export Plug-In . SVG Version: 6.00 Build 0)  -->
<svg version="1.1" id="图层_2" xmlns="http://www.w3.org/2000/svg" xmlns:xlink="http://www.w3.org/1999/xlink" x="0px" y="0px"
	 viewBox="0 0 100 100" style="enable-background:new 0 0 100 100;" xml:space="preserve">
<style type="text/css">
	.st0{fill:#F4C131;}
</style>
<g>
	<g>
		<path class="st0" d="M50,2.7c5.5,0,10.8,0.9,15.9,2.8C84.7,12.1,97.3,30,97.3,50c0,26.1-21.2,47.3-47.3,47.3
			C23.9,97.3,2.7,76.1,2.7,50c0-19.7,12.4-37.5,30.8-44.4C38.8,3.7,44.3,2.7,50,2.7 M50,0.1c-6.1,0-12,1.1-17.4,3.1
			c-19,7-32.5,25.3-32.5,46.8c0,27.6,22.3,49.9,49.9,49.9c27.6,0,49.9-22.3,49.9-49.9c0-21.7-13.8-40.1-33.1-47
			C61.6,1.1,55.9,0.1,50,0.1L50,0.1z"/>
	</g>
	<g>
		<path class="st0" d="M67.6,8.2c0.1,0.5-0.2,1.2-0.7,1.5l-16,8.8c-0.5,0.3-1.3,0.3-1.8,0L32.2,9.7c-0.5-0.3-0.8-0.9-0.7-1.4l0.9-4
			c0.1-0.5,0.6-1.1,1.2-1.2c0,0,10.3-2.9,16.4-2.9c5.9,0,15.8,2.6,15.8,2.6c0.5,0.1,1,0.7,1.1,1.2L67.6,8.2z"/>
	</g>
	<g>
		<path class="st0" d="M17,19.7c0.5,0.1,1.1,0.6,1.2,1.1l3.4,17.9c0.1,0.5-0.1,1.3-0.5,1.7L7.4,53.8C7,54.2,6.3,54.2,5.8,54
			l-3.6-2.1c-0.5-0.3-0.8-0.9-0.8-1.5c0,0,0.5-10.7,2.4-16.5c1.8-5.6,7.4-14.2,7.4-14.2c0.3-0.5,1-0.8,1.5-0.7L17,19.7z"/>
	</g>
	<g>
		<path class="st0" d="M83.8,20c-0.5,0.1-1.1,0.6-1.2,1.1l-3.4,17.9c-0.1,0.5,0.1,1.3,0.5,1.7l13.6,13.4c0.4,0.4,1.1,0.5,1.6,0.2
			l3.6-2.1c0.5-0.3,0.8-0.9,0.8-1.5c0,0-0.5-10.7-2.4-16.5C95.1,28.6,89.5,20,89.5,20c-0.3-0.5-1-0.8-1.5-0.7L83.8,20z"/>
	</g>
	<g>
		<path class="st0" d="M89,71.3c-0.3-0.5-1-0.8-1.5-0.7l-17.9,3.5c-0.5,0.1-1.2,0.6-1.4,1.1l-7.4,17.6c-0.2,0.5,0,1.2,0.4,1.5
			l3.2,2.6c0.4,0.3,1.2,0.4,1.7,0.2c0,0,9.8-4.4,14.5-8.3c4.5-3.8,10.5-12.2,10.5-12.2c0.3-0.4,0.3-1.2,0.1-1.7L89,71.3z"/>
	</g>
	<g>
		<path class="st0" d="M39.4,93c0.4-0.4,0.5-1.1,0.3-1.6l-8-16.4c-0.2-0.5-0.9-1-1.4-1l-18.9-2.7c-0.5-0.1-1.2,0.3-1.4,0.8l-1.6,3.8
			c-0.2,0.5-0.1,1.3,0.2,1.7c0,0,6.7,8.3,11.7,11.9c4.8,3.4,14.4,7,14.4,7c0.5,0.2,1.3,0,1.6-0.4L39.4,93z"/>
	</g>
</g>
<g>
	<path class="st0" d="M22.8,59.5h39.4v5.3H22.8V59.5z M57.8,75.1l-1.7-5.3c3.5,0.2,6,0.2,7.4,0.2c1.6,0,2.7-0.7,3.2-2.1
		c0.4-1.3,0.7-5.9,0.8-13.8H30.9V25.7H43c1-2.4,1.8-4.7,2.2-6.8l6,0.8c-0.5,2-1.4,4-2.6,6.1h18.1c-0.1,8.6-0.7,13.9-1.9,16.1
		c-1.2,2.2-4,3.4-8.5,3.4H53l-1.6-5c2.7,0.2,4.7,0.2,6.1,0.2c1.8,0,2.8-0.7,3.2-2.1c0.3-1.5,0.5-3.9,0.5-7.3H36.8v17.8h36.4
		c-0.1,11.6-0.7,18.9-1.8,21.9c-1.1,2.9-3.7,4.4-7.9,4.4H57.8z"/>
</g>
</svg>
