<?xml version="1.0" standalone="no"?><!DOCTYPE svg PUBLIC "-//W3C//DTD SVG 1.1//EN" "http://www.w3.org/Graphics/SVG/1.1/DTD/svg11.dtd"><svg t="1543228921034" class="icon" style="" viewBox="0 0 1024 1024" version="1.1" xmlns="http://www.w3.org/2000/svg" p-id="1993" xmlns:xlink="http://www.w3.org/1999/xlink"><defs><style type="text/css"></style></defs><path d="M929.536 208c-17.664 0-32 14.336-32 32l0 45.024C819.712 152.896 676.448 64 512 64 264.576 64 64 264.576 64 512s200.576 448 448 448c149.728 0 281.6-73.952 362.88-186.816 0.256-0.256 0.416-0.544 0.64-0.8 0.992-1.408 2.208-2.656 3.2-4.064-0.128-0.064-0.192-0.16-0.32-0.224 3.52-5.184 6.08-11.072 6.08-17.792 0.032-17.856-14.432-32.288-32.224-32.288-12.608 0-23.264 7.424-28.576 17.984l-0.224 0c-69.728 96.768-183.072 160-311.456 160C299.936 896 128 724.064 128 512S299.936 128 512 128c148.544 0 276.832 84.608 340.672 208l-51.136 0c-17.664 0-32 14.336-32 32s14.336 32 32 32l128 0c17.664 0 32-14.336 32-32l0-128C961.536 222.336 947.2 208 929.536 208z" p-id="1994"></path></svg>