<?xml version="1.0" encoding="utf-8"?>
<!-- Generator: Adobe Illustrator 19.0.0, SVG Export Plug-In . SVG Version: 6.00 Build 0)  -->
<svg version="1.1" id="图层_1" xmlns="http://www.w3.org/2000/svg" xmlns:xlink="http://www.w3.org/1999/xlink" x="0px" y="0px"
	 viewBox="0 0 34 34" style="enable-background:new 0 0 34 34;" xml:space="preserve">
<style type="text/css">
	.st0{fill-rule:evenodd;clip-rule:evenodd;fill:#040000;}
</style>
<g id="XMLID_2_">
	<g id="XMLID_38_">
		<path id="XMLID_39_" class="st0" d="M25,0v2h5.6L13.3,19.3l1.4,1.4L32,3.4V9h2V0H25z M32,28c0,2.2-1.8,4-4,4H6c-2.2,0-4-1.8-4-4V6
			c0-2.2,1.8-4,4-4h9l0-2H6C2.7,0,0,2.7,0,6v22c0,3.3,2.7,6,6,6h22c3.3,0,6-2.7,6-6v-8h-2V28z"/>
	</g>
</g>
</svg>
