<?xml version="1.0" encoding="utf-8"?>
<!-- Generator: Adobe Illustrator 21.0.0, SVG Export Plug-In . SVG Version: 6.00 Build 0)  -->
<svg version="1.1" id="图层_1" xmlns="http://www.w3.org/2000/svg" xmlns:xlink="http://www.w3.org/1999/xlink" x="0px" y="0px"
	 viewBox="0 0 100 79" style="enable-background:new 0 0 100 79;" xml:space="preserve">
<style type="text/css">
	.st0{fill:#FFFFFF;}
	.st1{fill-rule:evenodd;clip-rule:evenodd;fill:#FFB014;}
	.st2{fill:#FFB014;}
</style>
<g>
	<g>
		<path class="st0" d="M99.3,24.8L85.6,38.5c-0.6,0.6-1.5,0.6-2.1,0l-5.1-5.1l-1.8-1.8v42.7c-14.8,6-45.7,4.7-52.9,0V31.6L21,34.2
			l-4.4,4.4c-0.6,0.6-1.5,0.6-2.1,0L0.7,24.9c-0.6-0.6-0.6-1.5,0-2.1l4.4-4.4l0.6-0.6L22.3,1.2c0.3-0.3,0.6-0.4,0.9-0.4
			c0.1,0,0.1,0,0.1,0h53.2c0,0,0,0,0,0c0.4,0,0.8,0.1,1.2,0.4l16.6,16.5l5,5C99.9,23.3,99.9,24.2,99.3,24.8z"/>
	</g>
	<path class="st1" d="M32,0.8L50.3,19L68.6,0.8H32z"/>
	<path class="st0" d="M50,13.2l10.4-9.8H40.2L50,13.2"/>
</g>
<path class="st2" d="M21.7,33.5L21,34.2l-4.4,4.4c-0.6,0.6-1.5,0.6-2.1,0L0.7,24.9c-0.6-0.6-0.6-1.5,0-2.1l4.4-4.4l0.6-0.6
	L21.7,33.5z"/>
<path class="st2" d="M99.3,24.8L85.6,38.5c-0.6,0.6-1.5,0.6-2.1,0l-5.1-5.1l16-15.7l5,5C99.9,23.3,99.9,24.2,99.3,24.8z"/>
</svg>
