<?xml version="1.0" encoding="utf-8"?>
<!-- Generator: Adobe Illustrator 21.0.0, SVG Export Plug-In . SVG Version: 6.00 Build 0)  -->
<svg version="1.1" id="图层_1" xmlns="http://www.w3.org/2000/svg" xmlns:xlink="http://www.w3.org/1999/xlink" x="0px" y="0px"
	 viewBox="0 0 100 79" style="enable-background:new 0 0 100 79;" xml:space="preserve">
<style type="text/css">
	.st0{fill-rule:evenodd;clip-rule:evenodd;fill:#FFE84F;}
	.st1{fill-rule:evenodd;clip-rule:evenodd;fill:#FF9914;}
	.st2{fill:#FFFFFF;}
</style>
<g>
	<path class="st0" d="M99.3,24.8L85.6,38.5c-0.6,0.6-1.5,0.6-2.1,0l-7-7v42.7c-14.8,6-45.7,4.7-52.9,0V31.6l-7,7
		c-0.6,0.6-1.5,0.6-2.1,0L0.7,24.9c-0.6-0.6-0.6-1.5,0-2.1L22.3,1.2c0.3-0.3,0.6-0.4,0.9-0.4c0.1,0,0.1,0,0.1,0h53.2c0,0,0,0,0,0
		c0.4,0,0.9,0.1,1.2,0.4l21.6,21.5C99.9,23.3,99.9,24.2,99.3,24.8z"/>
	<path class="st1" d="M32,0.8L50.3,19L68.6,0.8H32z"/>
	<path class="st2" d="M50,13.2l10.4-9.8H40.2L50,13.2"/>
</g>
</svg>
