<?xml version="1.0" encoding="utf-8"?>
<!-- Generator: Adobe Illustrator 21.0.0, SVG Export Plug-In . SVG Version: 6.00 Build 0)  -->
<svg version="1.1" id="图层_3" xmlns="http://www.w3.org/2000/svg" xmlns:xlink="http://www.w3.org/1999/xlink" x="0px" y="0px"
	 viewBox="0 0 100 74" style="enable-background:new 0 0 100 74;" xml:space="preserve">
<style type="text/css">
	.st0{fill:#6299CE;}
</style>
<path class="st0" d="M78,44.8l-5.2,4.6l-1.5-3l3.8-3.7c-1-0.8-2-1.6-3-2.4L66.7,45l-1.5-3l4-3.9c-0.9-0.7-1.7-1.5-2.6-2.2l-4.9,4.3
	l-1.5-3l3.7-3.6c-1-0.9-1.9-1.8-2.8-2.7l-4.9,4.3l-1.5-3l3.9-3.8c-0.8-0.8-1.6-1.7-2.3-2.5l-4.6,4l-1.5-3l3.9-3.8
	c-1.1-1.5-1.9-3-2.4-4.3c0,0-13.1,1.6-20.6-2.3C22.7,11.9,21,0.5,21,0.5S14.7,0.5,9.2,6c2,4.3,7.5,13,20.9,21.2
	C48.7,38.8,63,44.9,64.7,58.1c-10.5-2.4-12.4-4.3-12.4-4.3s0.1-7.5-12.3-15.6C29.4,31.4,11.6,18.2,6.2,9.6c-0.6,0.8-1.1,1.7-1.6,2.7
	c3.7,4.6,13.3,15.1,19,19c7,4.7,20.2,14.5,20.1,18.3L30.2,45c0,0,1.6-4.5-9.7-12.1C12.2,27.1,6.4,18,4,13.8
	c-2.4,5.5-3.9,13.3-3.4,24.3c0,0,0.9,0.4,2.6,1.2L2,42.8l4.5,1.6l1.1-3.2c1.3,0.6,2.8,1.2,4.4,1.9l-1,2.9l4.5,1.6l0.9-2.6
	c9.4,3.9,21.9,8.9,34.4,13.3L50,60.6l4.5,1.6l0.9-2.5c1.5,0.5,3,1,4.5,1.5L59,63.7l4.5,1.6l0.9-2.6c4,1.3,7.8,2.4,11.4,3.3l-1.1,3.2
	l4.5,1.6l1.2-3.6c2.5,0.6,4.9,1,7.1,1.4l-1.2,3.4l4.5,1.6l1.6-4.5c1.5,0,2.9,0,4-0.2l3.1-8.8C99.5,59.9,89.1,53.2,78,44.8z"/>
</svg>
