<?xml version="1.0" encoding="utf-8"?>
<!-- Generator: Adobe Illustrator 19.0.0, SVG Export Plug-In . SVG Version: 6.00 Build 0)  -->
<svg version="1.1" id="图层_1" xmlns="http://www.w3.org/2000/svg" xmlns:xlink="http://www.w3.org/1999/xlink" x="0px" y="0px"
	 viewBox="0 0 100 100" style="enable-background:new 0 0 100 100;" xml:space="preserve">
<style type="text/css">
	.st0{fill-rule:evenodd;clip-rule:evenodd;fill:#6A90C8;}
</style>
<g id="XMLID_3_">
	<g id="XMLID_70_">
		<path id="XMLID_71_" class="st0" d="M72.3,5.2c0.1,0.1,0.2,0.1,0.4,0.2C72.2,5.2,72.1,5.2,72.3,5.2z M85.7,32c0,0.1,0,0.1,0.1,0.2
			C86.3,33.2,86,32.7,85.7,32z M72.8,5.5c1.1,0.6,3.1,1.6,0.1,0c-0.1-0.1-0.2-0.1-0.3-0.1c0,0,0,0,0.1,0C72.8,5.5,72.8,5.5,72.8,5.5
			z M85.7,32c0-0.1-0.1-0.1-0.1-0.2C84.7,30,85.3,31.1,85.7,32z M94.7,27.7C92.4,22.9,95.9,30.1,94.7,27.7c-1.3-2.5-4.3-3.5-6.8-2.2
			c-2.3,1.2-3.3,3.9-2.4,6.3c0.1,0.1,0.1,0.2,0.2,0.3C88.5,37.5,90,43.6,90,50c0,22.1-17.9,40-40,40S10,72.1,10,50s17.9-40,40-40
			c6.4,0,12.4,1.5,17.8,4.2c-0.2-0.1-0.2-0.1,0.1,0.1c0.1,0,0.2,0.1,0.3,0.1c0,0,0.1,0,0.1,0.1c2.5,1.2,5.4,0.2,6.7-2.2
			c1.2-2.4,0.3-5.4-2.1-6.6c-0.2-0.1-0.4-0.2-0.5-0.3C65.6,1.9,58,0,50,0C22.4,0,0,22.4,0,50s22.4,50,50,50s50-22.4,50-50
			C100,42,98.1,34.4,94.7,27.7z M67.9,14.2c0,0-0.1,0-0.1-0.1c0.6,0.3,3,1.5,0.5,0.2c0,0,0,0-0.1,0C68.1,14.3,68,14.3,67.9,14.2z
			 M50,17.5c-2.8,0-5,2.2-5,5v30c0,2.8,2.2,5,5,5h20c2.8,0,5-2.2,5-5c0-2.8-2.2-5-5-5H55v-25C55,19.7,52.8,17.5,50,17.5z"/>
	</g>
</g>
</svg>
