<?xml version="1.0" encoding="utf-8"?>
<!-- Generator: Adobe Illustrator 21.0.0, SVG Export Plug-In . SVG Version: 6.00 Build 0)  -->
<svg version="1.1" id="图层_3" xmlns="http://www.w3.org/2000/svg" xmlns:xlink="http://www.w3.org/1999/xlink" x="0px" y="0px"
	 viewBox="0 0 92 100" style="enable-background:new 0 0 92 100;" xml:space="preserve">
<path d="M53.5,3.9c-4.2-4.2-11-4.2-15.2,0L2.6,47c-1,1.4-1.7,3.2-1.7,5.1c0,4.7,3.8,8.6,8.6,8.6h8.6c2.4,0,4.3,1.9,4.3,4.3v25.7
	c0,4.7,3.8,8.6,8.6,8.6h30c4.7,0,8.6-3.8,8.6-8.6V65c0-2.4,1.9-4.3,4.3-4.3h8.6c4.7,0,8.6-3.8,8.6-8.6c0-1.9-0.6-3.7-1.7-5.1
	L53.5,3.9z"/>
</svg>
