<?xml version="1.0" encoding="utf-8"?>
<!-- Generator: Adobe Illustrator 21.0.0, SVG Export Plug-In . SVG Version: 6.00 Build 0)  -->
<svg version="1.1" id="图层_2" xmlns="http://www.w3.org/2000/svg" xmlns:xlink="http://www.w3.org/1999/xlink" x="0px" y="0px"
	 viewBox="0 0 100 89" style="enable-background:new 0 0 100 89;" xml:space="preserve">
<style type="text/css">
	.st0{fill:#ACACAD;}
</style>
<g>
	<ellipse cx="35.8" cy="63.3" rx="17.5" ry="17.4"/>
	<path d="M35.8,42.8c11.3,0,20.6,9.2,20.6,20.5s-9.2,20.5-20.6,20.5s-20.6-9.2-20.6-20.5C15.2,52,24.5,42.8,35.8,42.8L35.8,42.8z
		 M35.8,37.8c-14.2,0-25.7,11.4-25.7,25.5c0,14.1,11.5,25.5,25.7,25.5s25.7-11.4,25.7-25.5S50,37.8,35.8,37.8L35.8,37.8z"/>
	<path d="M57.4,37.8v2.5h-5.7v-2.5l-18.7,0c0,0,3,4.2,0,5.2c11.5-4.4,18.7,7.3,18.7,7.3v-5H53v5.1h4.5v2.2l42.2,0V37.8L57.4,37.8z"
		/>
	<g>
		<path d="M10.6,59.2c0.7,0,1.4,0,1.4,3.1c0,3.1-0.7,3.1-1.4,3.1H5.5c-1.7,0-3.1-1.4-3.1-3.1s1.4-3.1,3.1-3.1H10.6 M10.6,57.2H5.5
			c-2.8,0-5.1,2.3-5.1,5.1v0c0,2.8,2.3,5.1,5.1,5.1h5.1c2.8,0,3.4-2.3,3.4-5.1v0C14,59.4,13.4,57.2,10.6,57.2L10.6,57.2z"/>
	</g>
	<g>
		<polygon class="st0" points="25.8,6.5 19,13.3 44.5,33.5 		"/>
	</g>
	<g>
		<polygon class="st0" points="76.7,6.5 83.5,13.3 58.1,33.5 		"/>
	</g>
	<g>
		<polygon class="st0" points="46.3,0.2 55.9,0.2 52.3,32.4 		"/>
	</g>
	<path d="M6.2,77.4H4.8c-0.5,0-1-0.4-1-1V63.2c0-0.6,0.4-1,1-1h1.4c0.5,0,1,0.4,1,1v13.2C7.2,77,6.7,77.4,6.2,77.4z"/>
</g>
</svg>
